<svg width="480" height="480" viewBox="0 0 480 480" fill="none" xmlns="http://www.w3.org/2000/svg">
<g clip-path="url(#clip0_303_1049)">
<path d="M399.685 8.21558H63.0791V295.256C63.0791 342.483 81.4707 386.88 114.864 420.273C148.256 453.666 192.654 472.057 239.881 472.057C287.108 472.057 331.505 453.666 364.898 420.273C398.291 386.88 416.682 342.483 416.682 295.256V8.21558H399.685Z" fill="#0A0203"/>
<path d="M357.395 280.931L357.314 281.644L358.027 281.553C363.17 280.881 368.005 278.476 371.638 274.777C375.271 271.079 377.59 266.198 378.166 261.039L378.247 260.327L377.535 260.418C372.391 261.09 367.556 263.5 363.923 267.198C360.29 270.897 357.971 275.773 357.395 280.931ZM326.468 245.133C325.285 245.715 324.149 246.392 323.077 247.16C321.385 248.377 319.839 249.807 318.525 251.444C315.271 255.486 313.447 260.569 313.381 265.758L313.371 266.476L314.069 266.314C319.121 265.142 323.699 262.272 326.948 258.23C330.202 254.193 332.026 249.11 332.091 243.916L332.101 243.198L331.404 243.36C329.691 243.759 328.039 244.365 326.468 245.133ZM278.448 231.4L278.271 230.708L277.639 231.042C273.067 233.482 269.383 237.438 267.281 242.183C265.265 246.74 264.785 251.884 265.882 256.739C265.927 256.936 265.957 257.139 266.008 257.336L266.185 258.028L266.816 257.694C267.792 257.174 268.726 256.588 269.616 255.936C272.895 253.536 275.527 250.287 277.179 246.553C279.17 242.056 279.66 236.984 278.619 232.179C278.564 231.916 278.523 231.653 278.458 231.395M333.607 212.286L334.315 212.165C339.428 211.301 344.172 208.709 347.664 204.874C351.155 201.039 353.282 196.077 353.666 190.899L353.717 190.186L353.009 190.307C347.896 191.176 343.152 193.763 339.66 197.598C336.169 201.433 334.042 206.395 333.658 211.574L333.607 212.286ZM285.794 199.326L285.941 200.029L286.587 199.72C291.261 197.477 295.106 193.677 297.395 189.019C299.689 184.371 300.361 179.01 299.295 173.927L299.148 173.224L298.501 173.533C293.828 175.781 289.988 179.581 287.694 184.234C285.4 188.888 284.728 194.243 285.794 199.321M239.856 200.797L239.886 200.761L239.916 200.797L240.356 200.236C243.559 196.153 245.317 191.045 245.317 185.861C245.317 180.672 243.544 175.569 240.341 171.486L239.896 170.925L239.881 170.941L239.871 170.925L239.426 171.486C236.223 175.569 234.454 180.672 234.449 185.861C234.449 191.05 236.208 196.153 239.411 200.236L239.856 200.797ZM108.113 274.762C111.746 278.466 116.581 280.871 121.725 281.538L122.437 281.629L122.357 280.916C121.781 275.757 119.461 270.882 115.829 267.183C112.191 263.48 107.36 261.075 102.212 260.403L101.499 260.312L101.58 261.024C102.156 266.183 104.475 271.064 108.108 274.762M161.227 251.434C159.908 249.797 158.367 248.367 156.674 247.149C155.603 246.381 154.466 245.704 153.284 245.123C151.712 244.355 150.06 243.749 148.347 243.35L147.65 243.188L147.66 243.906C147.726 249.1 149.55 254.183 152.804 258.22C156.058 262.262 160.63 265.132 165.683 266.304L166.38 266.466L166.37 265.748C166.304 260.559 164.48 255.476 161.227 251.434ZM202.112 231.032L201.481 230.698L201.304 231.39C201.238 231.648 201.198 231.911 201.137 232.173C200.096 236.979 200.587 242.051 202.577 246.548C204.229 250.282 206.862 253.526 210.141 255.931C211.03 256.583 211.96 257.169 212.935 257.689L213.567 258.023L213.744 257.331C213.794 257.133 213.824 256.931 213.87 256.734C214.966 251.879 214.486 246.73 212.47 242.178C210.368 237.433 206.685 233.477 202.112 231.037M132.098 204.874C135.589 208.709 140.329 211.301 145.447 212.165L146.155 212.286L146.104 211.574C145.725 206.4 143.593 201.433 140.101 197.598C136.61 193.763 131.871 191.171 126.752 190.307L126.045 190.186L126.096 190.899C126.475 196.077 128.607 201.044 132.098 204.874ZM193.174 199.715L193.821 200.024L193.968 199.321C195.034 194.243 194.362 188.883 192.068 184.234C189.774 179.586 185.934 175.781 181.26 173.533L180.613 173.224L180.467 173.927C179.401 179.01 180.073 184.371 182.367 189.019C184.661 193.672 188.501 197.472 193.174 199.72M138.505 235.993C171.68 235.993 181.912 221.356 205.897 221.356C213.213 221.356 219.913 224.019 225.592 228.662C226.597 227.192 230.574 221.512 234.606 217.435C227.835 208.749 222.151 200.236 222.151 186.311C222.151 170.355 229.715 161.528 233.722 157.213L226.865 146.355C226.865 146.355 218.084 154.434 213.016 167.843C206.877 158.865 196.095 155.212 193.356 155.212V168.04C199.581 168.04 208.549 177.529 209.883 191.04C210.995 202.307 215.057 210.493 215.057 210.493C215.057 210.493 210.045 208.517 204.421 208.517C191.83 208.517 179.032 214.09 179.032 214.09C172.186 187.124 161.024 176.509 141.678 171.85V184.664C152.723 187.862 160.863 195.274 166.825 218.274C166.825 218.274 154.719 223.21 143.34 223.21C135.327 223.21 128.086 221.502 121.947 213.1L110.033 217.753C110.033 217.753 115.642 235.993 138.515 235.993M76.0341 21.0341H403.723V295.114C403.723 385.46 330.222 458.961 239.876 458.961C149.53 458.961 76.0341 385.46 76.0341 295.119V21.0341ZM222.328 357.044C208.433 382.6 180.543 414.114 139.763 414.341C151.748 424.421 165.264 432.733 179.911 438.867C190.481 431.899 219.736 405.327 222.333 357.044M340.004 414.341C299.224 414.114 271.328 382.6 257.439 357.044C260.036 405.327 289.291 431.894 299.861 438.867C314.508 432.733 328.024 424.421 340.004 414.341ZM84.1183 120.712H395.648V29.1133H84.1183V120.712ZM84.1183 295.114C84.1183 328.916 94.9461 360.237 113.312 385.794C180.305 385.768 222.252 364.143 222.252 307.387C222.252 286.808 211.632 283.205 199.051 283.205C172.615 283.205 149.454 306.553 128.319 306.553C114.192 306.553 104.45 300.657 98.8973 298.1L104.223 286.509C104.223 286.509 116.359 293.704 126.015 293.704C136.272 293.704 146.609 287.025 146.609 287.025C146.609 287.025 138.651 283.584 132.224 274.929C128.288 269.629 125.55 261.474 124.534 254.653H137.373C139.101 262.676 144.578 277.834 161.282 277.854C166.931 277.844 178.875 271.725 185.54 271.725C176.107 260.13 171.706 240.935 171.706 240.935C171.706 240.935 177.248 238.899 183.706 236.387C195.019 277.491 203.962 259.129 222.833 276.243C222.853 223.463 257.605 220.744 257.605 186.311C257.605 170.355 250.042 161.528 246.035 157.213L252.891 146.355C252.891 146.355 261.673 154.434 266.741 167.843C272.88 158.865 283.662 155.212 286.4 155.212V168.04C280.176 168.04 271.207 177.529 269.878 191.04C268.767 202.307 264.704 210.493 264.704 210.493C264.704 210.493 269.717 208.517 275.34 208.517C287.926 208.517 300.73 214.09 300.73 214.09C307.576 187.124 318.737 176.509 338.079 171.85V184.664C327.034 187.862 318.894 195.274 312.932 218.274C312.932 218.274 325.033 223.21 336.421 223.21C344.435 223.21 351.675 221.502 357.814 213.1L369.728 217.753C369.728 217.753 364.12 235.993 341.247 235.993C308.071 235.993 297.84 221.356 273.855 221.356C258.222 221.356 235.702 234.634 235.702 280.628V297.595C235.702 297.595 235.44 344.372 235.44 345.888C235.44 397.839 225.051 434.248 219.362 449.533C226.077 450.422 232.923 450.887 239.881 450.887C246.838 450.887 253.685 450.422 260.4 449.533C254.71 434.248 244.322 397.839 244.322 345.888C244.322 344.377 244.059 297.595 244.059 297.595C244.059 290.41 244.085 285.615 244.085 280.628C244.085 256.507 252.083 246.69 252.083 246.69C257.055 258.654 256.888 273.787 256.888 276.283C275.795 259.094 284.718 277.526 296.036 236.387C299.173 237.615 308.036 240.935 308.036 240.935C308.036 240.935 303.66 260.13 294.227 271.725C300.891 271.725 312.836 277.844 318.485 277.854C335.194 277.834 340.671 262.676 342.394 254.653H355.232C354.217 261.474 351.478 269.629 347.542 274.929C341.115 283.584 333.157 287.025 333.157 287.025C333.157 287.025 343.495 293.704 353.752 293.704C363.408 293.704 375.544 286.509 375.544 286.509L380.869 298.1C375.317 300.657 365.575 306.553 351.448 306.553C330.313 306.553 307.147 283.205 280.716 283.205C268.135 283.205 257.515 286.808 257.515 307.387C257.515 364.143 299.461 385.773 366.454 385.794C384.816 360.232 395.648 328.916 395.648 295.114V128.792H84.1183V295.114ZM424.762 0V295.119C424.762 320.064 419.871 344.281 410.22 367.089C400.908 389.108 387.579 408.879 370.608 425.846C353.636 442.818 333.87 456.147 311.851 465.459C289.043 475.109 264.826 480 239.876 480C214.926 480 190.714 475.109 167.906 465.459C145.887 456.147 126.121 442.823 109.149 425.846C92.1773 408.874 78.8484 389.108 69.5364 367.089C59.8909 344.281 55 320.064 55 295.119V0H424.762ZM416.683 8.07916H63.0792V295.119C63.0792 342.346 81.4707 386.744 114.864 420.136C148.256 453.529 192.654 471.921 239.881 471.921C287.108 471.921 331.505 453.529 364.898 420.136C398.291 386.744 416.683 342.346 416.683 295.119V8.07916Z" fill="#00B156"/>
<path d="M302.549 57.2211H302.579L302.604 57.2059H324.846V48.8135H300.619C296.329 48.8135 292.853 52.2947 292.848 56.5844V93.3777C292.848 97.6674 296.329 101.144 300.619 101.149H324.821V92.7916H302.579C302.175 92.8118 301.826 92.5036 301.801 92.0994C301.801 92.0893 301.801 92.0792 301.801 92.0741V57.9385C301.811 57.5343 302.145 57.2109 302.549 57.2211Z" fill="white"/>
<path d="M247.642 56.5844L247.652 56.5743V101.159H256.741V82.0244H279.605V72.7225H256.741V57.9436C256.746 57.5394 257.075 57.2211 257.479 57.2261C257.489 57.2261 257.504 57.2261 257.52 57.2261H279.61V48.8185H255.438C251.138 48.8135 247.652 52.2897 247.647 56.5844H247.642Z" fill="white"/>
<path d="M233.151 48.8842H222.485L212.859 65.7044L203.239 48.8842H192.588L207.549 75.0063L192.538 101.214H203.214L212.879 84.3234L222.555 101.214H233.206L218.205 75.0215L233.151 48.8842Z" fill="white"/>
<path d="M150.242 57.2261H163.753V101.159H173.105V57.2211H186.611V48.8135H150.252L150.242 57.2261Z" fill="white"/>
<path d="M134.382 48.8135C134.316 48.8135 134.255 48.8135 134.19 48.8135H116.495C111.786 48.7731 107.936 52.5524 107.886 57.2615V101.159H117.243V84H133.356V101.159H142.714V57.2615C142.744 52.6282 139.01 48.8438 134.377 48.8135H134.382ZM133.361 74.8446H117.248V59.2573C117.263 58.1154 118.198 57.2008 119.335 57.211C119.36 57.211 119.386 57.211 119.411 57.211H131.204C132.346 57.1554 133.311 58.0396 133.361 59.1764C133.361 59.2017 133.361 59.227 133.361 59.2522V74.8396V74.8446Z" fill="white"/>
<path d="M349.654 49.1975H340.736V101.214H349.654V49.1975Z" fill="white"/>
<path d="M371.875 49.1975H362.958V101.214H371.875V49.1975Z" fill="white"/>
</g>
<defs>
<clipPath id="clip0_303_1049">
<rect width="369.853" height="480" fill="white" transform="translate(55)"/>
</clipPath>
</defs>
</svg>
