<svg width="480" height="480" viewBox="0 0 480 480" fill="none" xmlns="http://www.w3.org/2000/svg">
<g clip-path="url(#clip0_308_1072)">
<path d="M223.248 464.997C207.358 450.765 188.633 447.796 166.919 444.344C163.699 443.842 160.305 443.302 156.776 442.685C115.141 435.647 91.557 424.77 77.9231 406.258C64.0579 387.417 64.0193 366.07 64 341.347L64.0579 0H415.954L416.069 341.945C415.934 366.533 415.819 387.764 401.915 406.489C388.262 424.867 364.735 435.704 323.255 442.705C320.363 443.206 317.509 443.65 314.712 444.112L313.15 444.363C291.436 447.815 272.692 450.785 256.802 465.016L240.044 480.019L223.287 465.016L223.248 464.997Z" fill="#C39E6D"/>
<path d="M225.253 462.76C208.727 447.95 189.578 444.903 167.401 441.374C164.2 440.873 160.806 440.333 157.296 439.735C116.491 432.85 93.4661 422.302 80.3529 404.484C67.0662 386.434 67.0469 365.53 67.0083 341.328L67.0469 2.98903H412.965L413.08 341.926C412.945 366.012 412.849 386.742 399.524 404.696C386.391 422.398 363.424 432.87 322.754 439.735C319.784 440.236 316.872 440.718 313.999 441.162L312.668 441.374C290.491 444.884 271.342 447.931 254.797 462.741L240.025 475.97L225.253 462.741V462.76Z" fill="black"/>
<path d="M404.576 11.3776H75.4163L75.3777 341.347C75.397 365.009 75.4355 383.695 87.0831 399.528C98.7886 415.437 120.213 425.002 158.704 431.481C162.175 432.079 165.531 432.619 168.713 433.101C191.217 436.688 212.468 440.063 230.846 456.512L240.025 464.727L249.204 456.512C267.582 440.043 288.833 436.688 311.357 433.101L312.456 432.928C315.368 432.465 318.319 431.983 321.346 431.481C359.683 425.021 381.05 415.514 392.774 399.701C404.461 383.965 404.557 365.414 404.673 341.926L404.576 11.3583V11.3776ZM319.051 417.925C315.657 418.503 312.379 419.024 309.178 419.544C285.69 423.266 261.411 427.123 240.025 446.291C218.639 427.142 194.38 423.266 170.872 419.544C167.71 419.043 164.412 418.522 160.999 417.944C89.1079 405.814 89.1658 384.737 89.1272 341.174L89.1658 25.1464H390.807L390.904 341.212C390.672 384.717 390.923 405.795 319.032 417.925" fill="#C39E6D"/>
<path d="M134.445 66.9929H140.519V84.58H150.142V89.6902H134.445V66.9929Z" fill="#C39E6D"/>
<path d="M150.913 78.3512C150.913 71.5054 156.544 66.7422 163.082 66.7422C169.619 66.7422 175.269 71.5054 175.269 78.3512C175.269 85.1971 169.638 89.9988 163.082 89.9988C156.525 89.9988 150.913 85.1971 150.913 78.3512ZM169.06 78.3512C169.06 74.7836 166.9 72.0067 163.082 72.0067C159.263 72.0067 157.104 74.7836 157.104 78.3512C157.104 81.9188 159.263 84.7342 163.082 84.7342C166.9 84.7342 169.06 81.938 169.06 78.3512Z" fill="#C39E6D"/>
<path d="M175.693 85.8141L180.09 82.5166C181.189 83.8857 182.558 84.9849 184.815 84.9849C186.627 84.9849 187.688 84.445 187.688 83.1915C187.688 82.2273 186.955 81.7452 185.451 81.2631L182.79 80.3567C179.492 79.2575 177.159 77.252 177.159 73.5109C177.159 69.037 180.861 66.7422 184.892 66.7422C188.922 66.7422 191.101 68.1692 192.432 69.7505L188.961 73.3952C188.035 72.431 187.032 71.756 185.22 71.756C183.754 71.756 183.021 72.431 183.021 73.3181C183.021 74.2051 183.523 74.6294 184.622 74.9958L187.63 75.9985C192.162 77.5027 193.705 79.6625 193.705 82.8637C193.705 87.029 191.101 90.0373 185.104 90.0373C179.994 90.0373 177.101 87.704 175.693 85.8334" fill="#C39E6D"/>
<path d="M205.294 89.6902H199.355L210.405 66.6072C210.501 66.3758 210.713 66.3758 210.81 66.6072L221.821 89.6902H215.554L214.686 87.7618H206.143L205.314 89.6902H205.294ZM210.328 77.9462L208.052 83.2108H212.661L210.328 77.9462Z" fill="#C39E6D"/>
<path d="M229.612 78.3705V89.671H223.904V66.6844C223.904 66.4915 224 66.318 224.366 66.6265L238.617 78.3705V66.9929H244.325V90.0181C244.325 90.2881 244.229 90.3845 243.863 90.0759L229.612 78.3705Z" fill="#C39E6D"/>
<path d="M263.841 82.0537H259.328V77.387H269.24V86.8555C267.138 88.591 264.4 89.9988 259.367 89.9988C252.695 89.9988 247.16 85.1971 247.16 78.3512C247.16 71.5054 252.695 66.7422 259.232 66.7422C263.243 66.7422 266.367 68.2463 268.334 70.7726L264.092 74.4365C262.954 72.9709 261.353 72.0067 259.097 72.0067C255.394 72.0067 253.35 74.7836 253.35 78.3512C253.35 81.9188 255.414 84.8885 259.425 84.8885C261.623 84.8885 262.857 84.445 263.822 83.9822V82.0537H263.841Z" fill="#C39E6D"/>
<path d="M272.287 66.9929H288.197V72.1032H278.362V77.387H286.558V82.208H278.362V84.58H288.66V89.6902H272.287V66.9929Z" fill="#C39E6D"/>
<path d="M291.61 66.9929H297.665V84.58H307.307V89.6902H291.61V66.9929Z" fill="#C39E6D"/>
<path d="M310.123 66.9929H326.032V72.1032H316.197V77.387H324.393V82.208H316.197V84.58H326.495V89.6902H310.123V66.9929Z" fill="#C39E6D"/>
<path d="M327.594 85.8141L331.991 82.5166C333.09 83.8857 334.459 84.9849 336.715 84.9849C338.528 84.9849 339.589 84.445 339.589 83.1915C339.589 82.2273 338.856 81.7452 337.352 81.2631L334.691 80.3567C331.393 79.2575 329.06 77.252 329.06 73.5109C329.06 69.037 332.762 66.7422 336.793 66.7422C340.823 66.7422 343.002 68.1692 344.333 69.7505L340.861 73.3952C339.936 72.431 338.933 71.756 337.12 71.756C335.655 71.756 334.922 72.431 334.922 73.3181C334.922 74.2051 335.423 74.6294 336.523 74.9958L339.531 75.9985C344.063 77.5027 345.605 79.6625 345.605 82.8637C345.605 87.029 343.002 90.0373 337.005 90.0373C331.894 90.0373 329.002 87.704 327.594 85.8334" fill="#C39E6D"/>
<path d="M134.464 351.645H147.153V355.849H139.459V360.207H146.247V364.392H139.459V370.331H134.464V351.645Z" fill="#C39E6D"/>
<path d="M148.445 360.998C148.445 355.367 153.093 351.433 158.473 351.433C163.853 351.433 168.501 355.367 168.501 360.998C168.501 366.629 163.853 370.582 158.473 370.582C153.093 370.582 148.445 366.629 148.445 360.998ZM163.39 360.998C163.39 358.047 161.597 355.772 158.473 355.772C155.349 355.772 153.555 358.047 153.555 360.998C153.555 363.948 155.349 366.243 158.473 366.243C161.597 366.243 163.39 363.929 163.39 360.998Z" fill="#C39E6D"/>
<path d="M169.927 360.998C169.927 355.367 174.575 351.433 179.955 351.433C185.335 351.433 189.983 355.367 189.983 360.998C189.983 366.629 185.335 370.582 179.955 370.582C174.575 370.582 169.927 366.629 169.927 360.998ZM184.873 360.998C184.873 358.047 183.079 355.772 179.955 355.772C176.831 355.772 175.038 358.047 175.038 360.998C175.038 363.948 176.831 366.243 179.955 366.243C183.079 366.243 184.873 363.929 184.873 360.998Z" fill="#C39E6D"/>
<path d="M195.305 355.849H190.369V351.645H205.256V355.849H200.3V370.331H195.305V355.849Z" fill="#C39E6D"/>
<path d="M207.512 351.645H215.149C218.851 351.645 221.281 353.361 221.281 356.196C221.281 358.279 220.355 359.243 219.141 359.822C221.165 360.4 222.901 361.846 222.901 364.72C222.901 368.287 220.124 370.331 215.477 370.331H207.512V351.645ZM214.763 358.549C215.862 358.549 216.344 358.009 216.344 357.122C216.344 356.235 215.901 355.618 214.802 355.618H212.333V358.568H214.744L214.763 358.549ZM215.361 366.378C217.289 366.378 217.887 365.549 217.887 364.257C217.887 362.965 217.251 362.174 215.361 362.174H212.333V366.378H215.361Z" fill="#C39E6D"/>
<path d="M227.895 370.331H222.997L232.099 351.317C232.177 351.125 232.35 351.125 232.427 351.317L241.491 370.331H236.323L235.609 368.75H228.57L227.876 370.331H227.895ZM232.042 360.67L230.171 365.009H233.97L232.042 360.67Z" fill="#C39E6D"/>
<path d="M242.995 351.645H247.989V366.127H255.934V370.331H242.995V351.645Z" fill="#C39E6D"/>
<path d="M257.516 351.645H262.51V366.127H270.455V370.331H257.516V351.645Z" fill="#C39E6D"/>
<path d="M288.139 370.582C282.894 370.582 278.42 366.629 278.42 360.998C278.42 355.367 282.874 351.433 287.869 351.433C291.899 351.433 294.387 353.13 295.949 355.444L292.189 358.009C291.475 356.91 290.318 355.791 287.965 355.791C285.208 355.791 283.549 358.067 283.549 361.017C283.549 363.968 285.285 366.262 288.139 366.262C290.549 366.262 291.745 365.163 292.536 363.678L296.373 366.147C294.541 369.252 291.957 370.601 288.158 370.601" fill="#C39E6D"/>
<path d="M297.742 351.645H302.737V366.127H310.682V370.331H297.742V351.645Z" fill="#C39E6D"/>
<path d="M311.608 363.1V351.645H316.602V363.042C316.602 365.163 317.586 366.359 319.707 366.359C321.828 366.359 322.812 365.144 322.812 363.042V351.645H327.826V363.1C327.826 368.133 324.393 370.601 319.726 370.601C315.06 370.601 311.627 368.133 311.627 363.1" fill="#C39E6D"/>
<path d="M330.217 351.645H337.853C341.556 351.645 343.986 353.361 343.986 356.196C343.986 358.279 343.06 359.243 341.845 359.822C343.87 360.4 345.605 361.846 345.605 364.72C345.605 368.287 342.829 370.331 338.181 370.331H330.217V351.645ZM337.468 358.549C338.567 358.549 339.049 358.009 339.049 357.122C339.049 356.235 338.605 355.618 337.506 355.618H335.038V358.568H337.448L337.468 358.549ZM338.065 366.378C339.994 366.378 340.592 365.549 340.592 364.257C340.592 362.965 339.955 362.174 338.065 362.174H335.038V366.378H338.065Z" fill="#C39E6D"/>
<path d="M227.298 290.958H167.363V138.653L134.445 112.754V323.857H235.976C232.042 313.521 229.11 302.471 227.298 290.958Z" fill="#C39E6D"/>
<path d="M267.736 268.107C265.769 267.065 245 256.266 235.975 251.599C234.934 275.55 238.559 302.336 247.488 323.857H280.252C280.252 323.857 266.348 293.716 267.736 268.107Z" fill="#C39E6D"/>
<path d="M220.394 218.759V233.935C253.003 250.384 280.58 265.445 312.726 281.625V323.857H345.625V112.754C306.17 115.415 272.5 142.644 256.571 171.069L279.866 196.948C287.348 182.08 298.321 169.912 312.745 161.292V246.258L192.162 112.735V144.206C220.182 169.237 266.753 214.362 295.313 239.99V241.687L201.553 159.017V179.111C230.075 200.709 266.387 229.866 295.293 251.754V253.431L210.964 190.276V209.117C238.965 225.952 268.296 245.621 295.293 261.743V263.44L220.375 218.739L220.394 218.759Z" fill="#C39E6D"/>
<path d="M228.281 414.318L241.201 400.511C242.821 398.698 244.229 397.001 244.229 394.842C244.229 392.913 242.86 391.505 240.661 391.505C238.463 391.505 236.573 393.26 236.13 396.114L228.975 394.012C230.344 388.131 234.645 384.698 240.893 384.698C247.141 384.698 252.02 388.343 252.02 394.186C252.02 397.966 250.053 400.858 247.141 403.944L242.956 408.379H251.827V414.936H228.397C228.011 414.936 227.915 414.666 228.262 414.318H228.281Z" fill="#C39E6D"/>
</g>
<defs>
<clipPath id="clip0_308_1072">
<rect width="352.05" height="480" fill="white" transform="translate(64)"/>
</clipPath>
</defs>
</svg>
